<svg width="20" height="20" viewBox="0 0 20 20" fill="none" xmlns="http://www.w3.org/2000/svg">
<path d="M17.3233 9.60771C17.2481 8.1648 16.7463 6.77668 15.8814 5.61929C15.6178 5.90312 15.3361 6.16951 15.038 6.41679C14.1222 7.17748 13.0988 7.79838 12.0011 8.25929C12.1542 8.58013 12.2945 8.89088 12.4182 9.18421V9.18696C12.4531 9.26892 12.4867 9.35143 12.519 9.43446C13.9069 9.27863 15.3699 9.33546 16.788 9.52704C16.9768 9.55271 17.1546 9.58021 17.3233 9.60771ZM8.72038 2.77854C9.6137 4.03728 10.4375 5.34396 11.188 6.69271C12.3091 6.25088 13.2359 5.69354 13.982 5.07296C14.2411 4.8595 14.4849 4.62824 14.7117 4.38088C13.3926 3.27145 11.7237 2.66426 10 2.66671C9.57108 2.66641 9.1429 2.70353 8.72038 2.77762V2.77854ZM2.89862 8.16396C3.52308 8.1482 4.1468 8.11059 4.76863 8.05121C6.27163 7.91677 7.7618 7.66484 9.22546 7.29771C8.46051 5.96874 7.63463 4.67578 6.75046 3.42296C5.80603 3.89082 4.97328 4.55633 4.30868 5.37435C3.64409 6.19236 3.16319 7.14374 2.89862 8.16396ZM4.30113 14.6155C4.65679 14.0957 5.12429 13.5109 5.74488 12.8747C7.07771 11.5089 8.65071 10.4455 10.4712 9.85888L10.528 9.84238C10.3768 9.50871 10.2347 9.21079 10.0917 8.93029C8.40871 9.42071 6.63588 9.72688 4.86946 9.88546C4.00779 9.96338 3.23504 9.99729 2.66671 10.0028C2.66509 11.6827 3.24264 13.3117 4.30204 14.6155H4.30113ZM12.7546 16.7971C12.4011 15.0144 11.9008 13.2641 11.2586 11.5639C9.42346 12.2303 7.96138 13.2047 6.83113 14.367C6.375 14.8276 5.97021 15.3362 5.62388 15.8841C6.88778 16.8272 8.42308 17.3356 10 17.3334C10.9441 17.3347 11.8795 17.1533 12.7546 16.799V16.7971ZM14.4715 15.8117C15.9027 14.7115 16.8777 13.1219 17.2096 11.3475C16.898 11.2696 16.5029 11.1917 16.0684 11.1312C15.1023 10.9921 14.1221 10.9819 13.1534 11.101C13.6988 12.6399 14.1392 14.2141 14.4715 15.8126V15.8117ZM10 19.1667C4.93729 19.1667 0.833374 15.0628 0.833374 10C0.833374 4.93729 4.93729 0.833374 10 0.833374C15.0628 0.833374 19.1667 4.93729 19.1667 10C19.1667 15.0628 15.0628 19.1667 10 19.1667Z" fill="#64748B"/>
</svg>
