<svg width="19" height="19" viewBox="0 0 19 19" fill="none" xmlns="http://www.w3.org/2000/svg">
<path d="M9.66618 0.833374C4.6016 0.833374 0.499513 4.93546 0.499513 10C0.498473 11.9244 1.10343 13.8002 2.22854 15.3613C3.35366 16.9225 4.94181 18.0897 6.76768 18.6974C7.22602 18.7771 7.39743 18.5021 7.39743 18.261C7.39743 18.0438 7.38552 17.3224 7.38552 16.5542C5.08285 16.9786 4.48701 15.9932 4.30368 15.4771C4.2001 15.2131 3.75368 14.4 3.3641 14.1819C3.04326 14.0105 2.58493 13.586 3.35218 13.575C4.07451 13.5631 4.58968 14.2396 4.76201 14.5146C5.58701 15.9006 6.90518 15.511 7.43135 15.2709C7.51202 14.675 7.75218 14.2745 8.01618 14.0453C5.9766 13.8161 3.84535 13.025 3.84535 9.51879C3.84535 8.52146 4.2001 7.69737 4.78493 7.05479C4.69326 6.82562 4.37243 5.88604 4.8766 4.62562C4.8766 4.62562 5.64385 4.38546 7.39743 5.56612C8.14366 5.35901 8.91467 5.25477 9.6891 5.25629C10.4683 5.25629 11.2474 5.35896 11.9808 5.56521C13.7334 4.37354 14.5016 4.62654 14.5016 4.62654C15.0058 5.88696 14.6849 6.82654 14.5933 7.05571C15.1772 7.69737 15.5329 8.51046 15.5329 9.51879C15.5329 13.037 13.3906 13.8161 11.351 14.0453C11.6829 14.3313 11.9698 14.8813 11.9698 15.7411C11.9698 16.9667 11.9579 17.9521 11.9579 18.262C11.9579 18.5021 12.1302 18.7881 12.5885 18.6965C14.4081 18.0821 15.9893 16.9126 17.1094 15.3526C18.2296 13.7926 18.8323 11.9206 18.8329 10C18.8329 4.93546 14.7308 0.833374 9.66618 0.833374Z" fill="#64748B"/>
</svg>
