<svg width="18" height="18" viewBox="0 0 18 18" fill="none" xmlns="http://www.w3.org/2000/svg">
<path d="M3.69548 2.58327C3.69523 3.0695 3.50185 3.53572 3.15786 3.87937C2.81387 4.22301 2.34746 4.41593 1.86123 4.41569C1.375 4.41545 0.908776 4.22206 0.565131 3.87807C0.221487 3.53408 0.0285657 3.06767 0.0288088 2.58144C0.0290519 2.09521 0.222439 1.62899 0.566428 1.28535C0.910416 0.941701 1.37683 0.748781 1.86306 0.749024C2.34929 0.749267 2.81551 0.942654 3.15915 1.28664C3.5028 1.63063 3.69572 2.09704 3.69548 2.58327ZM3.75048 5.77327H0.0838088V17.2499H3.75048V5.77327ZM9.54381 5.77327H5.89548V17.2499H9.50714V11.2274C9.50714 7.87244 13.8796 7.56077 13.8796 11.2274V17.2499H17.5005V9.98077C17.5005 4.32494 11.0288 4.53577 9.50714 7.31327L9.54381 5.77327Z" fill="#64748B"/>
</svg>
